<?xml version="1.0" encoding="utf-8"?>
<!-- Generator: Adobe Illustrator 22.0.1, SVG Export Plug-In . SVG Version: 6.00 Build 0)  -->
<svg version="1.1" id="Capa_1" xmlns="http://www.w3.org/2000/svg" xmlns:xlink="http://www.w3.org/1999/xlink" x="0px" y="0px"
	 viewBox="0 0 34 22" style="enable-background:new 0 0 34 22;" xml:space="preserve">
<style type="text/css">
	.st0{fill:#0CCFEF;}
</style>
<title>Behance-color</title>
<desc>Created with Sketch.</desc>
<g id="Welcome">
	<g id="Desktop-HD" transform="translate(-973.000000, -1828.000000)">
		<g id="Group-2" transform="translate(752.000000, 1822.000000)">
			<path id="Behance" class="st0" d="M242.9,9.9h8.9V7.3h-8.9V9.9L242.9,9.9z M245,15.5c-0.6,0.6-0.9,1.4-1.1,2.4h6.9
				c-0.1-1.1-0.4-1.9-1.1-2.4c-0.6-0.6-1.4-0.8-2.4-0.8C246.3,14.7,245.5,15,245,15.5L245,15.5L245,15.5z M251,12.1
				c1.1,0.5,2,1.2,2.7,2.3c0.6,0.9,1,2,1.2,3.2c0.1,0.7,0.2,1.7,0.1,3h-11.2c0.1,1.5,0.6,2.6,1.6,3.2c0.6,0.4,1.3,0.6,2.2,0.6
				c0.9,0,1.7-0.2,2.2-0.7c0.3-0.3,0.6-0.6,0.8-1.1h4.1c-0.1,0.9-0.6,1.8-1.5,2.8c-1.4,1.5-3.3,2.2-5.8,2.2c-2,0-3.8-0.6-5.4-1.9
				c-1.6-1.3-2.3-3.3-2.3-6.1c0-2.7,0.7-4.7,2.1-6.1c1.4-1.4,3.2-2.1,5.5-2.1C248.7,11.4,249.9,11.6,251,12.1L251,12.1L251,12.1z
				 M225.5,18v5.5h5c0.9,0,1.6-0.1,2.1-0.4c0.9-0.5,1.4-1.3,1.4-2.6c0-1.1-0.4-1.8-1.3-2.2c-0.5-0.2-1.2-0.3-2.1-0.4H225.5L225.5,18
				z M225.5,10v4.6h5.1c0.9,0,1.6-0.2,2.2-0.5c0.6-0.3,0.8-1,0.8-1.8c0-1-0.4-1.6-1.1-1.9c-0.6-0.2-1.5-0.3-2.5-0.3H225.5L225.5,10z
				 M236.8,8.6c0.6,0.9,1,1.9,1,3.2c0,1.3-0.3,2.3-1,3.1c-0.4,0.4-0.9,0.8-1.6,1.2c1.1,0.4,1.9,1,2.4,1.8c0.5,0.8,0.8,1.8,0.8,3
				c0,1.2-0.3,2.3-0.9,3.3c-0.4,0.6-0.9,1.2-1.5,1.6c-0.7,0.5-1.4,0.9-2.3,1c-0.9,0.2-1.9,0.3-2.9,0.3h-9.4V6.4h10
				C234,6.4,235.8,7.1,236.8,8.6L236.8,8.6L236.8,8.6z"/>
		</g>
	</g>
</g>
</svg>
