<?xml version="1.0" encoding="utf-8"?>
<!-- Generator: Adobe Illustrator 22.0.1, SVG Export Plug-In . SVG Version: 6.00 Build 0)  -->
<svg version="1.1" id="Capa_1" xmlns="http://www.w3.org/2000/svg" xmlns:xlink="http://www.w3.org/1999/xlink" x="0px" y="0px"
	 viewBox="0 0 34 33" style="enable-background:new 0 0 34 33;" xml:space="preserve">
<style type="text/css">
	.st0{fill:#0CCFEF;}
</style>
<title>Dribbble-color</title>
<desc>Created with Sketch.</desc>
<g id="Welcome">
	<g id="Desktop-HD" transform="translate(-918.000000, -1823.000000)">
		<g id="Group-2" transform="translate(752.000000, 1822.000000)">
			<path id="Dribbble" class="st0" d="M190.9,29.2c-0.1-0.8-0.9-5-2.7-10c4.5-0.7,8.4,0.5,8.7,0.6C196.2,23.7,194,27.1,190.9,29.2
				L190.9,29.2L190.9,29.2z M183.1,31.6c-3.4,0-6.5-1.2-8.9-3.2c0.2,0.2,0.3,0.2,0.3,0.2s2.7-5.9,10.9-8.8c0,0,0.1,0,0.1,0
				c2,5.1,2.8,9.4,3,10.7C186.9,31.2,185,31.6,183.1,31.6L183.1,31.6L183.1,31.6z M169.2,17.5c0-0.1,0-0.3,0-0.4
				c0.2,0,7.1,0.2,14.3-2c0.4,0.8,0.8,1.6,1.1,2.4c-0.2,0.1-0.4,0.1-0.5,0.2c-7.5,2.5-11.3,9.3-11.3,9.3s0,0,0,0
				C170.6,24.4,169.2,21.1,169.2,17.5L169.2,17.5L169.2,17.5z M177.2,4.8c0.2,0.2,2.8,3.8,5.2,8.1c-6.7,1.8-12.5,1.7-12.8,1.7
				C170.4,10.3,173.3,6.7,177.2,4.8L177.2,4.8L177.2,4.8z M179.8,3.9C179.8,3.9,179.8,3.9,179.8,3.9C179.8,3.9,179.8,3.9,179.8,3.9
				C179.8,3.9,179.8,3.9,179.8,3.9L179.8,3.9L179.8,3.9z M192.3,7c0,0.1-2,3.1-7.3,5.1c-2.4-4.4-5-7.9-5.2-8.2
				c1.1-0.3,2.1-0.4,3.3-0.4C186.6,3.5,189.8,4.8,192.3,7L192.3,7L192.3,7z M197,17.4c-0.2,0-4.9-1.1-9.7-0.5
				c-0.1-0.2-0.2-0.5-0.3-0.7c-0.3-0.7-0.6-1.4-0.9-2c5.5-2.3,7.7-5.5,7.7-5.6C195.8,11,197,14.1,197,17.4L197,17.4L197,17.4z
				 M199.1,14.2c-0.2-1.1-0.5-2.1-1-3.1c-0.4-1-0.9-1.9-1.5-2.8c-0.6-0.9-1.3-1.7-2-2.4c-0.7-0.7-1.5-1.4-2.4-2
				c-0.9-0.6-1.8-1.1-2.8-1.5c-1-0.4-2-0.7-3.1-1c-1.1-0.2-2.2-0.3-3.3-0.3c-1.1,0-2.2,0.1-3.3,0.3c-1,0.2-2.1,0.5-3.1,1
				c-1,0.4-1.9,0.9-2.8,1.5c-0.9,0.6-1.7,1.3-2.4,2c-0.7,0.7-1.4,1.6-2,2.4c-0.6,0.9-1.1,1.8-1.5,2.8c-0.4,1-0.7,2-1,3.1
				c-0.2,1.1-0.3,2.2-0.3,3.3c0,1.1,0.1,2.2,0.3,3.3c0.2,1.1,0.5,2.1,1,3.1c0.4,1,0.9,1.9,1.5,2.8c0.6,0.9,1.3,1.7,2,2.4
				c0.7,0.7,1.5,1.4,2.4,2c0.9,0.6,1.8,1.1,2.8,1.5c1,0.4,2,0.7,3.1,1c1.1,0.2,2.2,0.3,3.3,0.3c1.1,0,2.2-0.1,3.3-0.3
				c1-0.2,2.1-0.5,3.1-1c1-0.4,1.9-0.9,2.8-1.5c0.9-0.6,1.7-1.3,2.4-2c0.7-0.7,1.4-1.6,2-2.4c0.6-0.9,1.1-1.8,1.5-2.8
				c0.4-1,0.7-2,1-3.1c0.2-1.1,0.3-2.2,0.3-3.3C199.4,16.4,199.3,15.3,199.1,14.2L199.1,14.2L199.1,14.2z"/>
		</g>
	</g>
</g>
</svg>
