<?xml version="1.0" encoding="utf-8"?>
<!-- Generator: Adobe Illustrator 22.0.1, SVG Export Plug-In . SVG Version: 6.00 Build 0)  -->
<svg version="1.1" id="Capa_1" xmlns="http://www.w3.org/2000/svg" xmlns:xlink="http://www.w3.org/1999/xlink" x="0px" y="0px"
	 viewBox="0 0 34 34" style="enable-background:new 0 0 34 34;" xml:space="preserve">
<style type="text/css">
	.st0{fill:#0CCFEF;}
</style>
<title>Facebook-color</title>
<desc>Created with Sketch.</desc>
<g id="Welcome">
	<g id="Desktop-HD" transform="translate(-752.000000, -1822.000000)">
		<g id="Group-2" transform="translate(752.000000, 1822.000000)">
			<path id="Facebook" class="st0" d="M18,34H1.9c-1,0-1.9-0.8-1.9-1.9V1.9C0,0.8,0.8,0,1.9,0h29.9c1,0,1.9,0.8,1.9,1.9v30.2
				c0,1-0.8,1.9-1.9,1.9h-8.6V20.8h4.4l0.7-5.1h-5v-3.3c0-1.5,0.4-2.5,2.5-2.5l2.7,0V5.3c-0.5-0.1-2.1-0.2-3.9-0.2
				c-3.9,0-6.5,2.4-6.5,6.8v3.8h-4.4v5.1H18V34L18,34z"/>
		</g>
	</g>
</g>
</svg>
