<?xml version="1.0" encoding="utf-8"?>
<!-- Generator: Adobe Illustrator 22.0.1, SVG Export Plug-In . SVG Version: 6.00 Build 0)  -->
<svg version="1.1" id="Capa_1" xmlns="http://www.w3.org/2000/svg" xmlns:xlink="http://www.w3.org/1999/xlink" x="0px" y="0px"
	 viewBox="0 0 34 34" style="enable-background:new 0 0 34 34;" xml:space="preserve">
<style type="text/css">
	.st0{fill:#0CCFEF;}
</style>
<title>Instagram-color</title>
<desc>Created with Sketch.</desc>
<g id="Welcome">
	<g id="Desktop-HD" transform="translate(-863.000000, -1822.000000)">
		<g id="Group-2" transform="translate(752.000000, 1822.000000)">
			<path id="Instagram" class="st0" d="M128,0c4.6,0,5.1,0,6.9,0.1c1.8,0.1,3,0.4,4.1,0.8c1.1,0.4,2,1,3,2c0.9,0.9,1.5,1.9,1.9,3
				c0.4,1.1,0.7,2.3,0.8,4.1c0.1,1.8,0.1,2.4,0.1,7c0,4.6,0,5.2-0.1,7c-0.1,1.8-0.4,3-0.8,4.1c-0.4,1.1-1,2.1-1.9,3
				c-0.9,0.9-1.9,1.5-3,2c-1.1,0.4-2.3,0.7-4.1,0.8c-1.8,0.1-2.4,0.1-6.9,0.1c-4.6,0-5.1,0-6.9-0.1c-1.8-0.1-3-0.4-4.1-0.8
				c-1.1-0.4-2-1-3-2c-0.9-0.9-1.5-1.9-1.9-3c-0.4-1.1-0.7-2.3-0.8-4.1c-0.1-1.8-0.1-2.4-0.1-7c0-4.6,0-5.2,0.1-7
				c0.1-1.8,0.4-3,0.8-4.1c0.4-1.1,1-2.1,1.9-3c0.9-0.9,1.9-1.5,3-2c1.1-0.4,2.3-0.7,4.1-0.8C122.9,0,123.5,0,128,0z M128,3.1
				c-4.5,0-5,0-6.8,0.1c-1.6,0.1-2.5,0.4-3.1,0.6c-0.8,0.3-1.3,0.7-1.9,1.3c-0.6,0.6-1,1.2-1.3,2c-0.2,0.6-0.5,1.5-0.6,3.2
				c-0.1,1.8-0.1,2.3-0.1,6.9c0,4.5,0,5.1,0.1,6.9c0.1,1.7,0.3,2.6,0.6,3.2c0.3,0.8,0.7,1.4,1.3,2c0.6,0.6,1.1,1,1.9,1.3
				c0.6,0.2,1.5,0.5,3.1,0.6c1.8,0.1,2.3,0.1,6.8,0.1c4.5,0,5,0,6.8-0.1c1.6-0.1,2.5-0.4,3.1-0.6c0.8-0.3,1.3-0.7,1.9-1.3
				c0.6-0.6,1-1.2,1.3-2c0.2-0.6,0.5-1.5,0.6-3.2c0.1-1.8,0.1-2.3,0.1-6.9c0-4.5,0-5.1-0.1-6.9c-0.1-1.7-0.3-2.6-0.6-3.2
				c-0.3-0.8-0.7-1.4-1.3-2c-0.6-0.6-1.1-1-1.9-1.3c-0.6-0.2-1.5-0.5-3.1-0.6C133,3.1,132.5,3.1,128,3.1z M128,8.3
				c4.8,0,8.6,3.9,8.6,8.7c0,4.8-3.9,8.7-8.6,8.7c-4.8,0-8.6-3.9-8.6-8.7C119.4,12.2,123.3,8.3,128,8.3z M128,22.7
				c3.1,0,5.6-2.5,5.6-5.7c0-3.1-2.5-5.7-5.6-5.7c-3.1,0-5.6,2.5-5.6,5.7C122.4,20.1,124.9,22.7,128,22.7z M139,7.9c0,1.1-0.9,2-2,2
				c-1.1,0-2-0.9-2-2s0.9-2,2-2C138.1,5.9,139,6.8,139,7.9z"/>
		</g>
	</g>
</g>
</svg>
