<?xml version="1.0" encoding="utf-8"?>
<!-- Generator: Adobe Illustrator 22.0.1, SVG Export Plug-In . SVG Version: 6.00 Build 0)  -->
<svg version="1.1" id="Capa_1" xmlns="http://www.w3.org/2000/svg" xmlns:xlink="http://www.w3.org/1999/xlink" x="0px" y="0px"
	 viewBox="0 0 35 29" style="enable-background:new 0 0 35 29;" xml:space="preserve">
<style type="text/css">
	.st0{fill:#0CCFEF;}
</style>
<title>Twitter-color</title>
<desc>Created with Sketch.</desc>
<g id="Welcome">
	<g id="Desktop-HD" transform="translate(-807.000000, -1825.000000)">
		<g id="Group-2" transform="translate(752.000000, 1822.000000)">
			<path id="Twitter" class="st0" d="M89.2,6.6c-1.2,0.6-2.6,1-4,1.1c1.4-0.9,2.5-2.3,3-4c-1.3,0.8-2.8,1.4-4.4,1.8
				c-1.3-1.4-3-2.3-5-2.3c-3.8,0-6.9,3.2-6.9,7.2c0,0.6,0.1,1.1,0.2,1.6C66.4,11.8,61.4,8.9,58,4.5C57.4,5.6,57,6.8,57,8.2
				c0,2.5,1.2,4.7,3.1,6c-1.1,0-2.2-0.4-3.1-0.9v0.1c0,3.5,2.4,6.4,5.5,7.1c-0.6,0.2-1.2,0.3-1.8,0.3c-0.4,0-0.9,0-1.3-0.1
				c0.9,2.9,3.4,5,6.4,5c-2.4,1.9-5.3,3.1-8.6,3.1c-0.6,0-1.1,0-1.6-0.1c3.1,2.1,6.7,3.3,10.6,3.3c12.7,0,19.6-11,19.6-20.6
				c0-0.3,0-0.6,0-0.9C87.1,9.3,88.3,8,89.2,6.6"/>
		</g>
	</g>
</g>
</svg>
